<?xml version="1.0" encoding="UTF-8"?>
<svg version="1.1" xmlns="http://www.w3.org/2000/svg" width="823" height="823">
<path d="M0 0 C1.23629586 -0.00525911 1.23629586 -0.00525911 2.49756739 -0.01062447 C5.25329248 -0.0199121 8.00880503 -0.01502196 10.76453876 -0.01015663 C12.76270813 -0.01389422 14.76087602 -0.01849617 16.75904161 -0.02388728 C22.24564891 -0.03611929 27.73219524 -0.03585656 33.21881306 -0.03349853 C39.13786803 -0.03309041 45.05690343 -0.04412903 50.97594929 -0.05361366 C62.57112509 -0.07022588 74.16628211 -0.07574924 85.76146867 -0.07683842 C95.18718074 -0.07775802 104.61288622 -0.08187737 114.03859615 -0.08823967 C116.75322494 -0.0900348 119.46785374 -0.09181443 122.18248254 -0.09358943 C122.85737817 -0.09403152 123.53227379 -0.09447362 124.2276208 -0.09492911 C143.20822698 -0.10723548 162.18883088 -0.11513045 181.16944122 -0.11424255 C182.24258811 -0.11419582 182.24258811 -0.11419582 183.33741473 -0.11414814 C186.96339101 -0.11398193 190.58936728 -0.11378384 194.21534356 -0.11357872 C194.93545501 -0.11353883 195.65556647 -0.11349894 196.39749948 -0.11345784 C197.85374041 -0.11337697 199.30998133 -0.11329337 200.76622226 -0.11320706 C223.41813734 -0.11198181 246.06999251 -0.12699075 268.72189045 -0.15435219 C294.18084507 -0.18509174 319.63976033 -0.20228354 345.09873468 -0.20042574 C347.81493525 -0.20027649 350.53113581 -0.20017907 353.24733639 -0.20011711 C353.91611587 -0.2000938 354.58489535 -0.20007049 355.27394088 -0.20004648 C365.35848581 -0.19998881 375.44298354 -0.21061235 385.52751446 -0.22678185 C397.00185366 -0.24499385 408.4760947 -0.24934076 419.9504421 -0.235763 C425.80317205 -0.22923346 431.65571368 -0.22911591 437.50842571 -0.2464695 C442.87081083 -0.2622055 448.23285836 -0.25933086 453.59523527 -0.24190123 C455.53061318 -0.23883254 457.46601632 -0.24245875 459.40136447 -0.25362138 C478.39653208 -0.35588673 493.97034924 3.38930843 508.19625568 16.91742516 C519.16821921 28.17120281 525.82117803 41.94420765 525.73477459 57.77976322 C525.73828066 58.60396046 525.74178674 59.4281577 525.74539906 60.27733061 C525.75468669 63.03305571 525.74979655 65.78856825 525.74493122 68.54430199 C525.74866881 70.54247135 525.75327076 72.54063925 525.75866187 74.53880483 C525.77089388 80.02541213 525.77063115 85.51195846 525.76827312 90.99857628 C525.767865 96.91763125 525.77890362 102.83666666 525.78838825 108.75571251 C525.80500047 120.35088831 525.81052383 131.94604533 525.81161301 143.54123189 C525.81253261 152.96694396 525.81665196 162.39264945 525.82301426 171.81835938 C525.82480939 174.53298816 525.82658902 177.24761696 525.82836401 179.96224576 C525.82902716 180.9745892 525.82902716 180.9745892 525.8297037 182.00738402 C525.84201006 200.9879902 525.84990504 219.9685941 525.84901714 238.94920444 C525.84898599 239.6646357 525.84895483 240.38006696 525.84892273 241.11717795 C525.84875652 244.74315423 525.84855843 248.3691305 525.84835331 251.99510678 C525.84829348 253.07527396 525.84829348 253.07527396 525.84823243 254.1772627 C525.84815156 255.63350363 525.84806796 257.08974456 525.84798165 258.54598548 C525.8467564 281.19790056 525.86176534 303.84975573 525.88912678 326.50165367 C525.91986633 351.96060829 525.93705813 377.41952355 525.93520033 402.8784979 C525.93505108 405.59469847 525.93495366 408.31089904 525.9348917 411.02709961 C525.93485674 412.03026883 525.93485674 412.03026883 525.93482107 413.0537041 C525.9347634 423.13824903 525.94538694 433.22274677 525.96155643 443.30727768 C525.97976843 454.78161688 525.98411535 466.25585792 525.97053759 477.73020532 C525.96400805 483.58293527 525.9638905 489.4354769 525.98124409 495.28818893 C525.99698009 500.65057405 525.99410545 506.01262158 525.97667582 511.37499849 C525.97360713 513.3103764 525.97723334 515.24577954 525.98839597 517.18112769 C526.09066132 536.1762953 522.34546616 551.75011246 508.81734943 565.97601891 C497.56357177 576.94798243 483.79056694 583.60094125 467.95501137 583.51453781 C467.13081413 583.51804389 466.30661689 583.52154996 465.45744398 583.52516228 C462.70171888 583.53444991 459.94620634 583.52955977 457.1904726 583.52469444 C455.19230324 583.52843203 453.19413534 583.53303399 451.19596976 583.53842509 C445.70936246 583.5506571 440.22281613 583.55039437 434.73619831 583.54803634 C428.81714334 583.54762822 422.89810793 583.55866684 416.97906208 583.56815147 C405.38388628 583.58476369 393.78872926 583.59028705 382.1935427 583.59137623 C372.76783063 583.59229583 363.34212514 583.59641518 353.91641521 583.60277748 C351.20178643 583.60457261 348.48715763 583.60635224 345.77252883 583.60812724 C345.0976332 583.60856933 344.42273758 583.60901143 343.72739057 583.60946692 C324.74678439 583.62177329 305.76618049 583.62966826 286.78557014 583.62878036 C285.71242326 583.62873363 285.71242326 583.62873363 284.61759664 583.62868595 C280.99162036 583.62851974 277.36564408 583.62832166 273.73966781 583.62811653 C273.01955636 583.62807664 272.2994449 583.62803675 271.55751189 583.62799565 C270.10127096 583.62791478 268.64503003 583.62783118 267.18878911 583.62774487 C244.53687403 583.62651962 221.88501886 583.64152856 199.23312092 583.66889 C173.7741663 583.69962956 148.31525104 583.71682135 122.85627669 583.71496356 C120.14007612 583.7148143 117.42387555 583.71471688 114.70767498 583.71465492 C114.0388955 583.71463161 113.37011602 583.71460831 112.68107049 583.71458429 C102.59652556 583.71452662 92.51202782 583.72515016 82.42749691 583.74131966 C70.95315771 583.75953166 59.47891667 583.76387857 48.00456927 583.75030081 C42.15183931 583.74377127 36.29929769 583.74365372 30.44658566 583.76100731 C25.08420054 583.77674332 19.72215301 583.77386867 14.3597761 583.75643905 C12.42439819 583.75337035 10.48899505 583.75699656 8.5536469 583.7681592 C-10.44152071 583.87042454 -26.01533787 580.12522938 -40.24124432 566.59711266 C-51.21320784 555.343335 -57.86616666 541.57033016 -57.77976322 525.73477459 C-57.7832693 524.91057735 -57.78677537 524.08638012 -57.79038769 523.2372072 C-57.79967532 520.48148211 -57.79478518 517.72596956 -57.78991985 514.97023582 C-57.79365744 512.97206646 -57.7982594 510.97389857 -57.8036505 508.97573298 C-57.81588251 503.48912568 -57.81561978 498.00257935 -57.81326175 492.51596153 C-57.81285363 486.59690656 -57.82389225 480.67787116 -57.83337688 474.7588253 C-57.8499891 463.1636495 -57.85551246 451.56849248 -57.85660164 439.97330592 C-57.85752124 430.54759385 -57.86164059 421.12188836 -57.86800289 411.69617844 C-57.86979802 408.98154965 -57.87157765 406.26692085 -57.87335265 403.55229205 C-57.87379474 402.87739642 -57.87423684 402.2025008 -57.87469233 401.50715379 C-57.8869987 382.52654761 -57.89489367 363.54594371 -57.89400578 344.56533337 C-57.89397462 343.84990211 -57.89394346 343.13447085 -57.89391136 342.39735986 C-57.89374515 338.77138358 -57.89354707 335.14540731 -57.89334194 331.51943103 C-57.89330205 330.79931958 -57.89326216 330.07920812 -57.89322106 329.33727511 C-57.89314019 327.88103418 -57.89305659 326.42479326 -57.89297028 324.96855233 C-57.89174503 302.31663725 -57.90675397 279.66478208 -57.93411541 257.01288414 C-57.96485497 231.55392952 -57.98204676 206.09501426 -57.98018897 180.63603991 C-57.98003971 177.91983934 -57.97994229 175.20363878 -57.97988033 172.4874382 C-57.97985702 171.81865872 -57.97983372 171.14987924 -57.9798097 170.46083371 C-57.97975203 160.37628878 -57.99037557 150.29179105 -58.00654507 140.20726013 C-58.02475707 128.73292093 -58.02910398 117.25867989 -58.01552622 105.78433249 C-58.00899668 99.93160254 -58.00887913 94.07906091 -58.02623272 88.22634888 C-58.04196873 82.86396376 -58.03909408 77.50191623 -58.02166446 72.13953932 C-58.01859576 70.20416141 -58.02222197 68.26875827 -58.03338461 66.33341012 C-58.14032591 46.46971176 -53.75407351 30.59266486 -39.45608807 15.99164391 C-28.83794206 5.72990626 -14.67779948 -0.08008638 0 0 Z " fill="#000000" transform="translate(177.52249431610107,119.74273109436035)"/>
<path d="M0 0 C1.23629586 -0.00525911 1.23629586 -0.00525911 2.49756739 -0.01062447 C5.25329248 -0.0199121 8.00880503 -0.01502196 10.76453876 -0.01015663 C12.76270813 -0.01389422 14.76087602 -0.01849617 16.75904161 -0.02388728 C22.24564891 -0.03611929 27.73219524 -0.03585656 33.21881306 -0.03349853 C39.13786803 -0.03309041 45.05690343 -0.04412903 50.97594929 -0.05361366 C62.57112509 -0.07022588 74.16628211 -0.07574924 85.76146867 -0.07683842 C95.18718074 -0.07775802 104.61288622 -0.08187737 114.03859615 -0.08823967 C116.75322494 -0.0900348 119.46785374 -0.09181443 122.18248254 -0.09358943 C122.85737817 -0.09403152 123.53227379 -0.09447362 124.2276208 -0.09492911 C143.20822698 -0.10723548 162.18883088 -0.11513045 181.16944122 -0.11424255 C182.24258811 -0.11419582 182.24258811 -0.11419582 183.33741473 -0.11414814 C186.96339101 -0.11398193 190.58936728 -0.11378384 194.21534356 -0.11357872 C194.93545501 -0.11353883 195.65556647 -0.11349894 196.39749948 -0.11345784 C197.85374041 -0.11337697 199.30998133 -0.11329337 200.76622226 -0.11320706 C223.41813734 -0.11198181 246.06999251 -0.12699075 268.72189045 -0.15435219 C294.18084507 -0.18509174 319.63976033 -0.20228354 345.09873468 -0.20042574 C347.81493525 -0.20027649 350.53113581 -0.20017907 353.24733639 -0.20011711 C353.91611587 -0.2000938 354.58489535 -0.20007049 355.27394088 -0.20004648 C365.35848581 -0.19998881 375.44298354 -0.21061235 385.52751446 -0.22678185 C397.00185366 -0.24499385 408.4760947 -0.24934076 419.9504421 -0.235763 C425.80317205 -0.22923346 431.65571368 -0.22911591 437.50842571 -0.2464695 C442.87081083 -0.2622055 448.23285836 -0.25933086 453.59523527 -0.24190123 C455.53061318 -0.23883254 457.46601632 -0.24245875 459.40136447 -0.25362138 C478.39653208 -0.35588673 493.97034924 3.38930843 508.19625568 16.91742516 C519.16821921 28.17120281 525.82117803 41.94420765 525.73477459 57.77976322 C525.73828066 58.60396046 525.74178674 59.4281577 525.74539906 60.27733061 C525.75468669 63.03305571 525.74979655 65.78856825 525.74493122 68.54430199 C525.74866881 70.54247135 525.75327076 72.54063925 525.75866187 74.53880483 C525.77089388 80.02541213 525.77063115 85.51195846 525.76827312 90.99857628 C525.767865 96.91763125 525.77890362 102.83666666 525.78838825 108.75571251 C525.80500047 120.35088831 525.81052383 131.94604533 525.81161301 143.54123189 C525.81253261 152.96694396 525.81665196 162.39264945 525.82301426 171.81835938 C525.82480939 174.53298816 525.82658902 177.24761696 525.82836401 179.96224576 C525.82902716 180.9745892 525.82902716 180.9745892 525.8297037 182.00738402 C525.84201006 200.9879902 525.84990504 219.9685941 525.84901714 238.94920444 C525.84898599 239.6646357 525.84895483 240.38006696 525.84892273 241.11717795 C525.84875652 244.74315423 525.84855843 248.3691305 525.84835331 251.99510678 C525.84829348 253.07527396 525.84829348 253.07527396 525.84823243 254.1772627 C525.84815156 255.63350363 525.84806796 257.08974456 525.84798165 258.54598548 C525.8467564 281.19790056 525.86176534 303.84975573 525.88912678 326.50165367 C525.91986633 351.96060829 525.93705813 377.41952355 525.93520033 402.8784979 C525.93505108 405.59469847 525.93495366 408.31089904 525.9348917 411.02709961 C525.93485674 412.03026883 525.93485674 412.03026883 525.93482107 413.0537041 C525.9347634 423.13824903 525.94538694 433.22274677 525.96155643 443.30727768 C525.97976843 454.78161688 525.98411535 466.25585792 525.97053759 477.73020532 C525.96400805 483.58293527 525.9638905 489.4354769 525.98124409 495.28818893 C525.99698009 500.65057405 525.99410545 506.01262158 525.97667582 511.37499849 C525.97360713 513.3103764 525.97723334 515.24577954 525.98839597 517.18112769 C526.09066132 536.1762953 522.34546616 551.75011246 508.81734943 565.97601891 C497.56357177 576.94798243 483.79056694 583.60094125 467.95501137 583.51453781 C467.13081413 583.51804389 466.30661689 583.52154996 465.45744398 583.52516228 C462.70171888 583.53444991 459.94620634 583.52955977 457.1904726 583.52469444 C455.19230324 583.52843203 453.19413534 583.53303399 451.19596976 583.53842509 C445.70936246 583.5506571 440.22281613 583.55039437 434.73619831 583.54803634 C428.81714334 583.54762822 422.89810793 583.55866684 416.97906208 583.56815147 C405.38388628 583.58476369 393.78872926 583.59028705 382.1935427 583.59137623 C372.76783063 583.59229583 363.34212514 583.59641518 353.91641521 583.60277748 C351.20178643 583.60457261 348.48715763 583.60635224 345.77252883 583.60812724 C345.0976332 583.60856933 344.42273758 583.60901143 343.72739057 583.60946692 C324.74678439 583.62177329 305.76618049 583.62966826 286.78557014 583.62878036 C285.71242326 583.62873363 285.71242326 583.62873363 284.61759664 583.62868595 C280.99162036 583.62851974 277.36564408 583.62832166 273.73966781 583.62811653 C273.01955636 583.62807664 272.2994449 583.62803675 271.55751189 583.62799565 C270.10127096 583.62791478 268.64503003 583.62783118 267.18878911 583.62774487 C244.53687403 583.62651962 221.88501886 583.64152856 199.23312092 583.66889 C173.7741663 583.69962956 148.31525104 583.71682135 122.85627669 583.71496356 C120.14007612 583.7148143 117.42387555 583.71471688 114.70767498 583.71465492 C114.0388955 583.71463161 113.37011602 583.71460831 112.68107049 583.71458429 C102.59652556 583.71452662 92.51202782 583.72515016 82.42749691 583.74131966 C70.95315771 583.75953166 59.47891667 583.76387857 48.00456927 583.75030081 C42.15183931 583.74377127 36.29929769 583.74365372 30.44658566 583.76100731 C25.08420054 583.77674332 19.72215301 583.77386867 14.3597761 583.75643905 C12.42439819 583.75337035 10.48899505 583.75699656 8.5536469 583.7681592 C-10.44152071 583.87042454 -26.01533787 580.12522938 -40.24124432 566.59711266 C-51.21320784 555.343335 -57.86616666 541.57033016 -57.77976322 525.73477459 C-57.7832693 524.91057735 -57.78677537 524.08638012 -57.79038769 523.2372072 C-57.79967532 520.48148211 -57.79478518 517.72596956 -57.78991985 514.97023582 C-57.79365744 512.97206646 -57.7982594 510.97389857 -57.8036505 508.97573298 C-57.81588251 503.48912568 -57.81561978 498.00257935 -57.81326175 492.51596153 C-57.81285363 486.59690656 -57.82389225 480.67787116 -57.83337688 474.7588253 C-57.8499891 463.1636495 -57.85551246 451.56849248 -57.85660164 439.97330592 C-57.85752124 430.54759385 -57.86164059 421.12188836 -57.86800289 411.69617844 C-57.86979802 408.98154965 -57.87157765 406.26692085 -57.87335265 403.55229205 C-57.87379474 402.87739642 -57.87423684 402.2025008 -57.87469233 401.50715379 C-57.8869987 382.52654761 -57.89489367 363.54594371 -57.89400578 344.56533337 C-57.89397462 343.84990211 -57.89394346 343.13447085 -57.89391136 342.39735986 C-57.89374515 338.77138358 -57.89354707 335.14540731 -57.89334194 331.51943103 C-57.89330205 330.79931958 -57.89326216 330.07920812 -57.89322106 329.33727511 C-57.89314019 327.88103418 -57.89305659 326.42479326 -57.89297028 324.96855233 C-57.89174503 302.31663725 -57.90675397 279.66478208 -57.93411541 257.01288414 C-57.96485497 231.55392952 -57.98204676 206.09501426 -57.98018897 180.63603991 C-57.98003971 177.91983934 -57.97994229 175.20363878 -57.97988033 172.4874382 C-57.97985702 171.81865872 -57.97983372 171.14987924 -57.9798097 170.46083371 C-57.97975203 160.37628878 -57.99037557 150.29179105 -58.00654507 140.20726013 C-58.02475707 128.73292093 -58.02910398 117.25867989 -58.01552622 105.78433249 C-58.00899668 99.93160254 -58.00887913 94.07906091 -58.02623272 88.22634888 C-58.04196873 82.86396376 -58.03909408 77.50191623 -58.02166446 72.13953932 C-58.01859576 70.20416141 -58.02222197 68.26875827 -58.03338461 66.33341012 C-58.14032591 46.46971176 -53.75407351 30.59266486 -39.45608807 15.99164391 C-28.83794206 5.72990626 -14.67779948 -0.08008638 0 0 Z M-13.52249432 47.25726891 C-16.98327893 52.63553419 -18.10637904 57.25271705 -18.02306557 63.57508659 C-18.02857973 64.37714458 -18.0340939 65.17920257 -18.03977516 66.00556535 C-18.05334243 68.68617788 -18.03848835 71.36585867 -18.02369976 74.04645348 C-18.02759362 75.99044149 -18.03323474 77.93442665 -18.04047066 79.87840509 C-18.05523098 85.21512807 -18.04504049 90.55155616 -18.03073394 95.88826966 C-18.01963141 101.64567853 -18.03156439 107.40304578 -18.04057598 113.16045189 C-18.05451531 124.43715058 -18.04694709 135.71373735 -18.0319004 146.99043071 C-18.01504765 160.12000196 -18.01824964 173.24954527 -18.02199448 186.37912399 C-18.02805201 210.51202752 -18.01226581 234.64487347 -17.98680684 258.777762 C-17.96369202 280.80529217 -17.95830371 302.83275669 -17.96853924 324.86029625 C-17.97114128 330.50099497 -17.9737263 336.14169369 -17.97613716 341.7823925 C-17.97643461 342.47684281 -17.97673206 343.17129312 -17.97703852 343.88678737 C-17.98465445 362.29632828 -17.97818118 380.70586318 -17.96744114 399.11540174 C-17.96591529 401.75427913 -17.96439493 404.39315653 -17.96288013 407.03203392 C-17.96212232 408.33044426 -17.96136451 409.62885459 -17.96058373 410.9666107 C-17.95583923 420.12063578 -17.95769352 429.27464603 -17.96194553 438.42867088 C-17.96687012 449.58292012 -17.96089707 460.73710145 -17.94105124 471.89133513 C-17.93117361 477.58341342 -17.92607927 483.27538825 -17.93394375 488.96747208 C-17.94099456 494.17720758 -17.93420977 499.38673422 -17.91634012 504.59644216 C-17.91229176 506.48192784 -17.91330198 508.36743252 -17.91985898 510.25291115 C-17.92800806 512.81534083 -17.91769838 515.37706655 -17.90281105 517.93945122 C-17.9095487 518.67179503 -17.91628635 519.40413885 -17.92322817 520.1586749 C-17.84170288 527.41258457 -15.76310404 534.01665918 -10.52249432 539.25726891 C-5.36454744 542.73795273 -1.53950877 543.83985935 4.71912766 543.76063347 C5.92808155 543.76935411 5.92808155 543.76935411 7.16145876 543.77825093 C9.86138713 543.79284553 12.56040564 543.77896838 15.26032734 543.76520348 C17.21582728 543.76981261 19.17132377 543.7761656 21.12681299 543.78411245 C26.49999282 543.80082727 31.87288887 543.7925495 37.24606979 543.78016758 C43.04099293 543.77112822 48.83586682 543.78508134 54.63078022 543.79608727 C65.98314329 543.81388927 77.33540068 543.81002488 88.68776792 543.7984367 C97.91332393 543.78940884 107.13885029 543.78817558 116.36440945 543.79253197 C118.33280397 543.79345137 118.33280397 543.79345137 120.34096404 543.79438934 C122.33839702 543.79534761 124.33582999 543.79630594 126.33326296 543.7972969 C151.29511226 543.80953339 176.25690391 543.79843855 201.21874432 543.77690931 C223.39381481 543.75792905 245.56879342 543.75962347 267.74386311 543.77875328 C292.65854619 543.80017464 317.57317831 543.80866337 342.48786932 543.79630423 C345.14417493 543.79503001 347.80048054 543.79377253 350.45678616 543.79253197 C351.76378381 543.79191487 353.07078147 543.79129776 354.41738511 543.79066196 C363.63252083 543.78720671 372.84762396 543.79304123 382.06275463 543.80245018 C393.29206734 543.81366347 404.5212682 543.81064421 415.75056808 543.7893272 C421.48114948 543.77880756 427.21154431 543.77471069 432.94212437 543.78792381 C438.18710978 543.79983445 443.43173552 543.79330676 448.67668826 543.7720136 C450.57499011 543.76754193 452.47332229 543.76982647 454.37160467 543.77951676 C456.95151625 543.79167729 459.53019528 543.77920939 462.11004257 543.76063347 C462.84748527 543.76999813 463.58492797 543.7793628 464.34471741 543.78901124 C470.64921166 543.69825298 476.00952119 541.69715491 480.53609943 537.22211266 C480.9911385 536.55308922 481.44617756 535.88406578 481.91500568 535.19476891 C482.38809162 534.52316734 482.86117756 533.85156578 483.34859943 533.15961266 C485.78799309 529.04893891 485.62293201 525.13160982 485.61731339 520.51063156 C485.62026481 519.70957727 485.62321623 518.90852298 485.62625709 518.08319432 C485.63497753 515.37618447 485.6365314 512.66921721 485.63813496 509.96219444 C485.64286392 508.0108631 485.64801455 506.05953274 485.65355259 504.10820353 C485.66748531 498.72801336 485.67504979 493.34782997 485.68152559 487.96762633 C485.68788905 483.35736637 485.69796019 478.74711759 485.70808624 474.13686459 C485.74143693 458.94586285 485.76293611 443.7548543 485.78128609 428.56382793 C485.7860796 424.60956662 485.7910631 420.65530558 485.79609132 416.70104456 C485.82705991 392.15783743 485.85375621 367.61462845 485.8705101 343.07140732 C485.87444737 337.38450045 485.8784592 331.69759364 485.88253498 326.01068687 C485.88303665 325.30415693 485.88353832 324.59762698 485.88405519 323.86968704 C485.90047298 300.96273341 485.93892913 278.0558866 485.98982209 255.14898552 C486.04204307 231.60142981 486.07482455 208.05393099 486.08208763 184.5063162 C486.08637684 170.63746983 486.1001316 156.76879857 486.14245129 142.90001106 C486.17671179 131.65854111 486.19070665 120.41727985 486.17802715 109.17576067 C486.1721911 103.43890074 486.17613132 97.70248238 486.20619678 91.96568871 C486.23349773 86.71359051 486.23310661 81.46224891 486.21068633 76.21013434 C486.20745575 74.31033449 486.2143762 72.41048453 486.23248356 70.51076822 C486.57992244 58.08919401 486.57992244 58.08919401 481.54565293 47.04432833 C475.67428197 41.97095222 470.92289532 39.50355229 463.12565994 39.63364983 C461.91705844 39.62364781 461.91705844 39.62364781 460.68404076 39.61344373 C457.99074963 39.5972329 455.29891787 39.61656437 452.60566425 39.63580894 C450.65271222 39.6314789 448.69976403 39.62496197 446.74682575 39.61644888 C441.38530668 39.5994527 436.02425444 39.61364212 430.6627599 39.63296366 C424.87878146 39.64838435 419.09486046 39.63499042 413.31087971 39.62521935 C401.9823528 39.61068721 390.654005 39.62293236 379.32549506 39.64433259 C366.13669985 39.66833339 352.94794578 39.66662879 339.75913358 39.66402668 C315.51876096 39.65973968 291.27847645 39.68317313 267.03813287 39.71837416 C244.90991276 39.75037086 222.78177316 39.76241703 200.65353107 39.75629234 C199.23253178 39.7559055 197.81153249 39.75551904 196.3905332 39.75513297 C195.68801751 39.75494163 194.98550181 39.75475028 194.26169776 39.75455314 C190.72531637 39.7535988 187.18893497 39.75268443 183.65255356 39.75181389 C182.95487723 39.75164009 182.2572009 39.7514663 181.53838286 39.75128724 C163.04670023 39.74693217 144.55502676 39.75702316 126.06335026 39.77165174 C124.09177594 39.77321097 124.09177594 39.77321097 122.08037185 39.7748017 C119.44040524 39.77689262 116.80043865 39.77900359 114.16047208 39.78113487 C104.96390009 39.78803427 95.76733953 39.78869916 86.5707655 39.78725243 C75.36634438 39.78581369 64.1619956 39.79548596 52.9575985 39.81919879 C47.23931857 39.83107001 41.52113954 39.8381764 35.80284786 39.83236122 C30.57033833 39.82719722 25.33804214 39.8358501 20.10556913 39.85563582 C18.21068195 39.86038348 16.31577404 39.86006558 14.42088991 39.85422546 C11.84817535 39.84706123 9.27617106 39.85829481 6.70351028 39.87415886 C5.59624101 39.86448115 5.59624101 39.86448115 4.46660265 39.85460794 C-2.61061115 39.93669778 -8.46667147 42.20144606 -13.52249432 47.25726891 Z " fill="#5A46D9" transform="translate(177.52249431610107,119.74273109436035)"/>
<path d="M0 0 C1.70286163 -0.00601227 1.70286163 -0.00601227 3.44012451 -0.012146 C19.25694882 -0.02584942 33.82328181 0.62766084 48.92285156 5.77246094 C52.62087108 6.96048359 56.38641608 7.71225021 60.1875 8.5 C60.1875 9.16 60.1875 9.82 60.1875 10.5 C60.88875 10.603125 61.59 10.70625 62.3125 10.8125 C65.57887647 11.59359003 68.2346852 12.92058743 71.1875 14.5 C71.1875 15.16 71.1875 15.82 71.1875 16.5 C71.991875 16.55414063 72.79625 16.60828125 73.625 16.6640625 C78.46515547 17.79980074 82.03824765 20.20468908 86.1875 22.875 C87.74859103 23.8642062 89.31106323 24.85123657 90.875 25.8359375 C91.61105469 26.3009668 92.34710938 26.76599609 93.10546875 27.24511719 C95.38123091 28.65652272 95.38123091 28.65652272 98.6875 30.2265625 C101.1875 31.5 101.1875 31.5 102.1875 33.5 C103.83821396 34.52611949 105.50720006 35.52308143 107.1875 36.5 C110.92398649 38.95540541 110.92398649 38.95540541 112.125 41.4375 C113.57269773 44.24773677 115.71487876 45.55722617 118.1875 47.5 C118.8475 48.345625 119.5075 49.19125 120.1875 50.0625 C122.32102115 52.6627289 124.2832707 53.86171681 127.1875 55.5 C129 57.0625 129 57.0625 130.1875 58.5 C130.1875 59.16 130.1875 59.82 130.1875 60.5 C131.1775 60.83 132.1675 61.16 133.1875 61.5 C133.77734375 63.27734375 133.77734375 63.27734375 134.125 65.4375 C134.54790824 67.59841217 134.54790824 67.59841217 135.1875 69.5 C137.07120471 70.8169667 137.07120471 70.8169667 139.1875 71.5 C141.53877433 74.10319658 142.1875 74.92129926 142.1875 78.5 C142.8475 78.5 143.5075 78.5 144.1875 78.5 C145.13151042 80.2578125 146.07552083 82.015625 147.01953125 83.7734375 C148.23513493 85.80502365 148.23513493 85.80502365 151.1875 87.5 C151.1875 88.16 151.1875 88.82 151.1875 89.5 C151.8475 89.5 152.5075 89.5 153.1875 89.5 C153.579375 90.5725 153.97125 91.645 154.375 92.75 C158.04861871 102.98982011 158.04861871 102.98982011 163.1875 112.5 C163.90352268 114.77672837 164.56406094 117.07119786 165.1875 119.375 C166.51036268 124.29511805 166.51036268 124.29511805 168.27734375 129.0625 C169.36244139 131.96851257 169.56792756 134.53364236 169.75 137.625 C169.94858519 140.87531274 170.15463663 143.40140989 171.1875 146.5 C172.45961148 155.40884783 172.4646541 164.45484554 172.5 173.4375 C172.50394775 174.16990906 172.50789551 174.90231812 172.51196289 175.65692139 C172.54909306 190.54006476 170.83731023 204.84499899 168.1875 219.5 C167.5275 219.5 166.8675 219.5 166.1875 219.5 C165.5275 223.13 164.8675 226.76 164.1875 230.5 C163.5275 230.5 162.8675 230.5 162.1875 230.5 C162.249375 231.8921875 162.249375 231.8921875 162.3125 233.3125 C162.1875 236.5 162.1875 236.5 160.1875 239.5 C160.084375 240.49 159.98125 241.48 159.875 242.5 C159.24088003 247.9303728 156.55938333 252.64539767 154.1875 257.5 C153.4759375 259.046875 153.4759375 259.046875 152.75 260.625 C147.99006174 269.3832864 142.21447031 278.47977227 134.1875 284.5 C133.5275 285.49 132.8675 286.48 132.1875 287.5 C131.5275 287.5 130.8675 287.5 130.1875 287.5 C130.05601562 288.36818359 130.05601562 288.36818359 129.921875 289.25390625 C128.98943085 292.1057966 127.60546213 293.37956602 125.4375 295.4375 C124.71433594 296.13101562 123.99117187 296.82453125 123.24609375 297.5390625 C122.56675781 298.18617188 121.88742187 298.83328125 121.1875 299.5 C120.300625 300.428125 119.41375 301.35625 118.5 302.3125 C116.18973683 304.49788408 113.90277974 305.87083216 111.1875 307.5 C110.341875 308.345625 109.49625 309.19125 108.625 310.0625 C106.47902806 312.20847194 104.95460359 313.3726615 102.1875 314.5 C102.1875 315.16 102.1875 315.82 102.1875 316.5 C101.383125 316.726875 100.57875 316.95375 99.75 317.1875 C98.904375 317.620625 98.05875 318.05375 97.1875 318.5 C96.29363836 321.04775306 96.29363836 321.04775306 96.1875 323.5 C94.5375 323.5 92.8875 323.5 91.1875 323.5 C91.1875 302.05 91.1875 280.6 91.1875 258.5 C92.5075 257.84 93.8275 257.18 95.1875 256.5 C95.5175 255.51 95.8475 254.52 96.1875 253.5 C97.16600195 252.47895449 98.16730427 251.4793879 99.1875 250.5 C99.8475 249.51 100.5075 248.52 101.1875 247.5 C102.1775 247.5 103.1675 247.5 104.1875 247.5 C104.27 246.79875 104.3525 246.0975 104.4375 245.375 C105.35888864 241.84301021 107.11395814 239.48071643 109.1875 236.5 C109.5175 235.51 109.8475 234.52 110.1875 233.5 C110.8475 233.5 111.5075 233.5 112.1875 233.5 C112.5175 231.52 112.8475 229.54 113.1875 227.5 C113.8475 227.5 114.5075 227.5 115.1875 227.5 C115.5175 225.85 115.8475 224.2 116.1875 222.5 C116.8475 222.5 117.5075 222.5 118.1875 222.5 C118.24808594 221.30761719 118.30867188 220.11523438 118.37109375 218.88671875 C118.45551149 217.32030075 118.54015887 215.75389512 118.625 214.1875 C118.68397461 213.00897461 118.68397461 213.00897461 118.74414062 211.80664062 C118.78603516 211.04931641 118.82792969 210.29199219 118.87109375 209.51171875 C118.90775146 208.81522217 118.94440918 208.11872559 118.98217773 207.40112305 C119.1875 205.5 119.1875 205.5 120.1875 202.5 C120.8475 202.5 121.5075 202.5 122.1875 202.5 C122.1875 200.52 122.1875 198.54 122.1875 196.5 C40.3475 196.5 -41.4925 196.5 -125.8125 196.5 C-124.74229527 209.34245672 -121.77463846 216.94069258 -115.984375 227.93359375 C-114.8125 230.5 -114.8125 230.5 -114.8125 233.5 C-114.1525 233.5 -113.4925 233.5 -112.8125 233.5 C-112.14130451 234.9562545 -111.47568193 236.41507867 -110.8125 237.875 C-110.44125 238.68710937 -110.07 239.49921875 -109.6875 240.3359375 C-108.8125 242.5 -108.8125 242.5 -108.8125 244.5 C-108.1525 244.5 -107.4925 244.5 -106.8125 244.5 C-104.96446615 247.11804795 -103.83658241 249.41743173 -102.9375 252.5 C-102.06178911 255.6762069 -102.06178911 255.6762069 -99.27270508 257.33666992 C-96.40524048 260.12654285 -96.39237602 262.6710907 -96.24487305 266.57543945 C-96.24566327 269.08819246 -96.27382926 271.60103341 -96.32421875 274.11328125 C-96.33355213 275.45133643 -96.34066577 276.78940877 -96.34565735 278.12748718 C-96.36468681 281.63782486 -96.41374947 285.14711698 -96.46917725 288.65704346 C-96.52045917 292.24322365 -96.54319026 295.82957392 -96.56835938 299.41601562 C-96.62187451 306.4444381 -96.70713629 313.47216876 -96.8125 320.5 C-103.17410112 318.98369386 -109.82485964 316.67087122 -113.4375 310.9375 C-113.79457031 310.34710937 -114.15164063 309.75671875 -114.51953125 309.1484375 C-116.87627801 306.14376338 -120.33766677 304.88820881 -123.8125 303.5 C-123.8125 302.84 -123.8125 302.18 -123.8125 301.5 C-124.4725 301.5 -125.1325 301.5 -125.8125 301.5 C-126.286875 300.695625 -126.76125 299.89125 -127.25 299.0625 C-128.61233672 296.2081924 -128.61233672 296.2081924 -131.8125 295.5 C-131.90144531 294.74074219 -131.99039063 293.98148438 -132.08203125 293.19921875 C-132.95317634 289.98017461 -133.8638193 289.26578437 -136.5 287.3125 C-141.18414527 283.47234487 -144.27713712 278.99328623 -146.8125 273.5 C-146.8125 272.51 -146.8125 271.52 -146.8125 270.5 C-147.4725 270.5 -148.1325 270.5 -148.8125 270.5 C-148.8125 269.51 -148.8125 268.52 -148.8125 267.5 C-149.4725 267.5 -150.1325 267.5 -150.8125 267.5 C-153.93885553 265.09446639 -155.04783089 262.02649454 -156.5 258.4375 C-156.93699219 257.37402344 -157.37398437 256.31054688 -157.82421875 255.21484375 C-158.8125 252.5 -158.8125 252.5 -158.8125 250.5 C-159.4725 250.5 -160.1325 250.5 -160.8125 250.5 C-160.8125 248.52 -160.8125 246.54 -160.8125 244.5 C-161.4725 244.5 -162.1325 244.5 -162.8125 244.5 C-165.8125 238.75 -165.8125 238.75 -165.8125 236.5 C-166.4725 236.5 -167.1325 236.5 -167.8125 236.5 C-168.08513672 234.90285156 -168.08513672 234.90285156 -168.36328125 233.2734375 C-170.82523966 217.70262565 -170.82523966 217.70262565 -174.8125 202.5 C-174.90461949 200.90205557 -174.94040883 199.300548 -174.94189453 197.69995117 C-174.94504669 196.7243071 -174.94819885 195.74866302 -174.95144653 194.74345398 C-174.94841019 193.15921379 -174.94841019 193.15921379 -174.9453125 191.54296875 C-174.94626923 190.44841873 -174.94722595 189.35386871 -174.94821167 188.22615051 C-174.94889309 185.90182437 -174.94704143 183.57749633 -174.94287109 181.25317383 C-174.93757863 177.73970094 -174.9427879 174.22635922 -174.94921875 170.71289062 C-174.96178634 139.72741704 -174.96178634 139.72741704 -171.875 130.1875 C-170.64350192 126.22082682 -169.48345363 122.31464789 -168.625 118.25 C-167.8125 114.5 -167.8125 114.5 -166.8125 112.5 C-166.1525 112.5 -165.4925 112.5 -164.8125 112.5 C-164.72613281 111.943125 -164.63976562 111.38625 -164.55078125 110.8125 C-163.58253536 105.55377005 -162.02536718 101.75196402 -159.03515625 97.33203125 C-157.6663528 95.36335911 -157.6663528 95.36335911 -156.3125 92.5 C-155.05207118 89.97914235 -153.74278739 87.5513804 -152.3125 85.125 C-151.9103125 84.43664062 -151.508125 83.74828125 -151.09375 83.0390625 C-150.6709375 82.53117187 -150.248125 82.02328125 -149.8125 81.5 C-148.8225 81.5 -147.8325 81.5 -146.8125 81.5 C-146.4825 78.53 -146.1525 75.56 -145.8125 72.5 C-145.1525 72.5 -144.4925 72.5 -143.8125 72.5 C-143.544375 71.9225 -143.27625 71.345 -143 70.75 C-141.7736378 68.42636635 -140.56406566 66.46175354 -138.8125 64.5 C-137.8225 64.5 -136.8325 64.5 -135.8125 64.5 C-135.4825 63.51 -135.1525 62.52 -134.8125 61.5 C-133.84489234 60.4686245 -132.84031166 59.4713924 -131.8125 58.5 C-130.74373012 57.2553566 -129.68165999 56.0049406 -128.625 54.75 C-125.48482762 51.12105878 -122.10288126 48.00745935 -118.4140625 44.9453125 C-116.69662185 43.57190983 -116.69662185 43.57190983 -115.8125 41.5 C-114.8225 41.17 -113.8325 40.84 -112.8125 40.5 C-111.12433067 38.85511706 -109.45896685 37.18662458 -107.8125 35.5 C-104.29525862 32.5 -104.29525862 32.5 -100.8125 32.5 C-100.8125 31.51 -100.8125 30.52 -100.8125 29.5 C-95.46366279 24.5 -95.46366279 24.5 -92.8125 24.5 C-92.8125 23.84 -92.8125 23.18 -92.8125 22.5 C-90.8325 22.17 -88.8525 21.84 -86.8125 21.5 C-86.8125 20.84 -86.8125 20.18 -86.8125 19.5 C-85.54410474 18.99384702 -84.27266898 18.49530901 -83 18 C-82.29230469 17.7215625 -81.58460938 17.443125 -80.85546875 17.15625 C-78.8125 16.5 -78.8125 16.5 -75.8125 16.5 C-75.8125 15.84 -75.8125 15.18 -75.8125 14.5 C-52.42751816 2.2507238 -25.86774934 0.04433005 0 0 Z " fill="#FCFCFC" transform="translate(412.8125,240.5)"/>
<path d="M0 0 C1.3305954 0.37807526 2.66131897 0.75569983 3.9921875 1.1328125 C5.48105469 1.56207031 5.48105469 1.56207031 7 2 C7 3.32 7 4.64 7 6 C7.825 5.9175 8.65 5.835 9.5 5.75 C14.01303847 6.07235989 17.11795056 7.79294651 21 10 C21 10.66 21 11.32 21 12 C22.65 12.33 24.3 12.66 26 13 C26 13.66 26 14.32 26 15 C26.804375 15.04125 27.60875 15.0825 28.4375 15.125 C32.63975391 16.15713254 35.28620811 18.01156275 38.75390625 20.52734375 C40.91431779 22.08462632 40.91431779 22.08462632 43.3203125 22.75390625 C47.42436937 24.66235252 50.18008842 27.7869393 53.3125 31 C53.95767578 31.64195312 54.60285156 32.28390625 55.26757812 32.9453125 C60 37.73282077 60 37.73282077 60 40 C60.99 40.33 61.98 40.66 63 41 C63.45375 41.763125 63.9075 42.52625 64.375 43.3125 C65.82529904 46.12488005 65.82529904 46.12488005 68.4375 47.6875 C71.65467247 50.59080199 72.50360008 53.31222809 73.953125 57.328125 C75.31379035 60.8008679 77.12563602 63.90128147 79.046875 67.08984375 C80 69 80 69 80 72 C80.66 72 81.32 72 82 72 C82.83681426 74.03182207 83.64279976 76.07633933 84.4375 78.125 C85.11619141 79.83042969 85.11619141 79.83042969 85.80859375 81.5703125 C87 86 87 86 88 100 C7.15 100 -73.7 100 -157 100 C-157 89.37736166 -156.26637659 83.55123561 -152.01953125 74.453125 C-150.21408326 70.10898195 -149.12498291 65.55958983 -148 61 C-147.34 61 -146.68 61 -146 61 C-146 60.01 -146 59.02 -146 58 C-145.34 58 -144.68 58 -144 58 C-143.67 57.01 -143.34 56.02 -143 55 C-142.34 55 -141.68 55 -141 55 C-140.7525 54.236875 -140.505 53.47375 -140.25 52.6875 C-139 50 -139 50 -137.0625 48.6875 C-134.33618705 46.45688032 -133.88747131 44.21220994 -132.78515625 40.94140625 C-131.7168506 38.29987436 -130.23631948 36.73134412 -128 35 C-127.34 35 -126.68 35 -126 35 C-125.67 34.01 -125.34 33.02 -125 32 C-124.34 32 -123.68 32 -123 32 C-122.67 31.01 -122.34 30.02 -122 29 C-121.34 29 -120.68 29 -120 29 C-120 28.34 -120 27.68 -120 27 C-119.34 27 -118.68 27 -118 27 C-117.505 25.515 -117.505 25.515 -117 24 C-111.77777778 21 -111.77777778 21 -109 21 C-108.505 19.515 -108.505 19.515 -108 18 C-107.34 18 -106.68 18 -106 18 C-106 17.34 -106 16.68 -106 16 C-105.45730469 15.73445313 -104.91460937 15.46890625 -104.35546875 15.1953125 C-103.64003906 14.84210938 -102.92460937 14.48890625 -102.1875 14.125 C-101.47980469 13.77695312 -100.77210938 13.42890625 -100.04296875 13.0703125 C-97.78753582 11.9343514 -97.78753582 11.9343514 -95 10 C-92.73828125 9.5859375 -92.73828125 9.5859375 -90.3125 9.375 C-89.50425781 9.30023438 -88.69601562 9.22546875 -87.86328125 9.1484375 C-86.94095703 9.07496094 -86.94095703 9.07496094 -86 9 C-86 8.34 -86 7.68 -86 7 C-83.09399739 5.74335022 -81.20395416 5 -78 5 C-78 4.34 -78 3.68 -78 3 C-56.17463623 -8.50791908 -23.12237747 -6.72561723 0 0 Z " fill="#010101" transform="translate(446,292)"/>
<path d="M0 0 C0.66 0 1.32 0 2 0 C2 2.97 2 5.94 2 9 C2.66 9 3.32 9 4 9 C5 11 5 11 5 19 C-77.83 19 -160.66 19 -246 19 C-246 16.69 -246 14.38 -246 12 C-245.34 12 -244.68 12 -244 12 C-244 9.36 -244 6.72 -244 4 C-243.34 3.67 -242.68 3.34 -242 3 C-242.33 7.62 -242.66 12.24 -243 17 C-162.15 17 -81.3 17 2 17 C1.01 8.585 1.01 8.585 0 0 Z " fill="#7C7C7C" transform="translate(532,375)"/>
<path d="M0 0 C82.83 0 165.66 0 251 0 C251 3.3 251 6.6 251 10 C250.01 10 249.02 10 248 10 C248 12.64 248 15.28 248 18 C247.34 18 246.68 18 246 18 C245.875 10.375 245.875 10.375 247 7 C247.66 7 248.32 7 249 7 C249 5.02 249 3.04 249 1 C167.16 1 85.32 1 1 1 C1 2.98 1 4.96 1 7 C0.67 7 0.34 7 0 7 C0 4.69 0 2.38 0 0 Z " fill="#8B8B8B" transform="translate(286,436)"/>
<path d="M0 0 C2 0 2 0 3.5625 1.3125 C5 3 5 3 6 6 C6.9793879 7.02019573 7.97895449 8.02149805 9 9 C10.34838383 11.69676767 10.12716247 13.79147779 10.12939453 16.81079102 C10.13254669 18.02867813 10.13569885 19.24656525 10.13894653 20.50135803 C10.13715689 21.83554114 10.13510597 23.16972392 10.1328125 24.50390625 C10.13348581 25.86628741 10.13445606 27.22866845 10.13571167 28.59104919 C10.13718686 31.44669742 10.13503948 34.30231439 10.13037109 37.15795898 C10.12466849 40.82574985 10.12795727 44.49346764 10.13394356 48.16125584 C10.13754938 50.974142 10.13641059 53.78701071 10.13381577 56.59989738 C10.13314683 57.95274807 10.13397375 59.30560032 10.13629532 60.65844917 C10.13882273 62.545167 10.13429043 64.43189035 10.12939453 66.31860352 C10.12859894 67.39400894 10.12780334 68.46941437 10.12698364 69.57740784 C10 72 10 72 9 73 C6.6875 73.4375 6.6875 73.4375 4 73 C1.6875 70 1.6875 70 0 67 C0.8971875 67.4640625 0.8971875 67.4640625 1.8125 67.9375 C4.08956772 69.10209704 4.08956772 69.10209704 7 70 C6.67 49.54 6.34 29.08 6 8 C4.68 7.34 3.36 6.68 2 6 C1.34 5.34 0.68 4.68 0 4 C0 2.68 0 1.36 0 0 Z " fill="#3F3F3F" transform="translate(309,491)"/>
<path d="M0 0 C0.33 0 0.66 0 1 0 C0.99555878 0.80100128 0.99111755 1.60200256 0.98654175 2.42727661 C0.94640662 9.9894987 0.91598596 17.55166886 0.89637566 25.1139698 C0.88595477 29.00148196 0.87182667 32.88890583 0.84912109 36.77636719 C0.82733206 40.53055561 0.81541863 44.2846593 0.81024551 48.0389061 C0.80656061 49.46857918 0.79936495 50.89824782 0.78853989 52.32788467 C0.77394519 54.33589373 0.7731824 56.3439887 0.77294922 58.35205078 C0.768508 59.49344513 0.76406677 60.63483948 0.75949097 61.81082153 C1.01324537 65.17563513 1.82895592 67.84802731 3 71 C4.38265701 77.27165992 5.27797007 83.62206892 6 90 C2.51318899 86.51318899 1.20121013 81.4925418 0.80859375 76.62890625 C0.81194024 74.75152269 0.89774909 72.87459995 1 71 C0.34 71 -0.32 71 -1 71 C-2.78336381 60.2664738 -3.28664647 49.84151099 -3.20581055 38.97485352 C-3.18749574 36.43690918 -3.1853023 33.89933197 -3.18554688 31.36132812 C-3.1644312 21.86238876 -2.84416826 12.46653593 -2 3 C-1.34 3 -0.68 3 0 3 C0 2.01 0 1.02 0 0 Z " fill="#8C8C8C" transform="translate(238,378)"/>
<path d="M0 0 C1.70286163 -0.00601227 1.70286163 -0.00601227 3.44012451 -0.012146 C19.25694882 -0.02584942 33.82328181 0.62766084 48.92285156 5.77246094 C52.62087108 6.96048359 56.38641608 7.71225021 60.1875 8.5 C60.1875 9.16 60.1875 9.82 60.1875 10.5 C61.239375 10.6546875 61.239375 10.6546875 62.3125 10.8125 C65.57887647 11.59359003 68.2346852 12.92058743 71.1875 14.5 C68.1875 15.5 68.1875 15.5 66.3125 14.828125 C65.61125 14.47234375 64.91 14.1165625 64.1875 13.75 C56.52050821 10.14713719 48.59586693 8.29324216 40.1875 7.5 C40.1875 6.84 40.1875 6.18 40.1875 5.5 C34.5775 5.17 28.9675 4.84 23.1875 4.5 C23.1875 3.51 23.1875 2.52 23.1875 1.5 C17.58624231 1.59456519 11.98536566 1.70086768 6.38452148 1.81738281 C4.48484156 1.85532818 2.58509816 1.89023646 0.68530273 1.921875 C-9.03093074 2.08564612 -18.53025915 2.25634026 -28.1015625 4.07226562 C-32.65832466 4.79123602 -37.21366849 4.66588971 -41.8125 4.5 C-31.23688929 -2.55040714 -12.21257491 0.02092892 0 0 Z " fill="#929292" transform="translate(412.8125,240.5)"/>
<path d="M0 0 C1.3305954 0.37807526 2.66131897 0.75569983 3.9921875 1.1328125 C4.98476563 1.41898437 5.97734375 1.70515625 7 2 C7 2.66 7 3.32 7 4 C3.7 4 0.4 4 -3 4 C-3.495 3.01 -3.495 3.01 -4 2 C-6.12576782 1.53348793 -6.12576782 1.53348793 -8.5625 1.375 C-9.38878906 1.30023438 -10.21507812 1.22546875 -11.06640625 1.1484375 C-11.70449219 1.09945313 -12.34257812 1.05046875 -13 1 C-13 0.34 -13 -0.32 -13 -1 C-19.24795675 -1.02527124 -25.49590041 -1.04283344 -31.74389648 -1.05493164 C-33.87118014 -1.05997298 -35.99846031 -1.06680591 -38.12573242 -1.07543945 C-41.17627826 -1.08751379 -44.22677845 -1.09323014 -47.27734375 -1.09765625 C-48.23462875 -1.10281754 -49.19191376 -1.10797882 -50.1782074 -1.11329651 C-51.05904495 -1.11337204 -51.93988251 -1.11344757 -52.84741211 -1.11352539 C-53.62684677 -1.115746 -54.40628143 -1.11796661 -55.20933533 -1.12025452 C-57.02366535 -1.19571386 -57.02366535 -1.19571386 -58 0 C-60.58022142 0.28221172 -63.16030185 0.44820197 -65.75 0.62109375 C-66.86375 0.80865234 -66.86375 0.80865234 -68 1 C-68.33 1.66 -68.66 2.32 -69 3 C-71.06640625 3.4140625 -71.06640625 3.4140625 -73.5625 3.625 C-74.38878906 3.69976562 -75.21507812 3.77453125 -76.06640625 3.8515625 C-77.02353516 3.92503906 -77.02353516 3.92503906 -78 4 C-57.80416864 -9.46388757 -22.35491071 -6.5023838 0 0 Z " fill="#7A7A7A" transform="translate(446,292)"/>
<path d="M0 0 C5.91796238 8.87694357 4.28322903 23.37199118 4.20581055 33.72998047 C4.18762459 36.23285276 4.18530144 38.73534978 4.18554688 41.23828125 C4.16871979 49.45191338 4.00520133 57.65469494 3.61328125 65.859375 C3.58316452 66.59134094 3.55304779 67.32330688 3.52201843 68.07745361 C3.28707976 72.37113234 2.5055789 75.98169476 1 80 C0.63893903 81.66088045 0.29537827 83.32618981 0 85 C-0.66 85 -1.32 85 -2 85 C-2.33 87.64 -2.66 90.28 -3 93 C-3.66 93 -4.32 93 -5 93 C-4.01 87.555 -4.01 87.555 -3 82 C-2.34 82 -1.68 82 -1 82 C-1.01740234 81.4423999 -1.03480469 80.8847998 -1.05273438 80.31030273 C-1.13310576 75.77553887 -0.85911841 71.64273853 0.06738281 67.1796875 C2.15253558 56.97514757 2.28230527 46.86873991 2.25 36.5 C2.24895264 35.76661407 2.24790527 35.03322815 2.24682617 34.27761841 C2.22126188 25.80909088 1.9564125 17.4226004 1 9 C0.90549561 8.12384033 0.81099121 7.24768066 0.71362305 6.3449707 C0.48293243 4.22918486 0.24264164 2.11444861 0 0 Z " fill="#888888" transform="translate(582,378)"/>
<path d="M0 0 C0.99 0 1.98 0 3 0 C2.67 20.46 2.34 40.92 2 62 C2.99 62 3.98 62 5 62 C5 62.99 5 63.98 5 65 C3.35 65 1.7 65 0 65 C0 43.55 0 22.1 0 0 Z " fill="#848484" transform="translate(504,499)"/>
<path d="M0 0 C2 0 2 0 3.5625 1.3125 C5 3 5 3 6 6 C6.66 6.33 7.32 6.66 8 7 C8 28.12 8 49.24 8 71 C6.35 71 4.7 71 3 71 C1.1875 69 1.1875 69 0 67 C0.8971875 67.4640625 0.8971875 67.4640625 1.8125 67.9375 C4.08956772 69.10209704 4.08956772 69.10209704 7 70 C6.67 49.54 6.34 29.08 6 8 C4.68 7.34 3.36 6.68 2 6 C1.34 5.34 0.68 4.68 0 4 C0 2.68 0 1.36 0 0 Z " fill="#959595" transform="translate(309,491)"/>
<path d="M0 0 C0.66 0.33 1.32 0.66 2 1 C-3.75 6 -3.75 6 -6 6 C-6.33 6.99 -6.66 7.98 -7 9 C-7.66 9 -8.32 9 -9 9 C-9.33 9.99 -9.66 10.98 -10 12 C-10.66 12 -11.32 12 -12 12 C-12.2475 12.763125 -12.495 13.52625 -12.75 14.3125 C-14.12130672 17.26080945 -15.2351079 18.35834532 -18 20 C-18.66 20 -19.32 20 -20 20 C-20.33 20.99 -20.66 21.98 -21 23 C-21.66 22.67 -22.32 22.34 -23 22 C-20.65137797 18.14154952 -19.11938002 15.84661863 -15 14 C-14.67 13.01 -14.34 12.02 -14 11 C-13.34 11 -12.68 11 -12 11 C-11.67 10.01 -11.34 9.02 -11 8 C-10.34 8 -9.68 8 -9 8 C-9 7.34 -9 6.68 -9 6 C-8.34 6 -7.68 6 -7 6 C-6.67 5.01 -6.34 4.02 -6 3 C-3.0625 1.25 -3.0625 1.25 0 0 Z " fill="#767676" transform="translate(335,313)"/>
<path d="M0 0 C1 3 1 3 0.21484375 5.1640625 C-11.51125402 27.75562701 -11.51125402 27.75562701 -18 31 C-17.34 29.02 -16.68 27.04 -16 25 C-15.34 25 -14.68 25 -14 25 C-13.67 23.35 -13.34 21.7 -13 20 C-12.01 20 -11.02 20 -10 20 C-9.87625 19.443125 -9.7525 18.88625 -9.625 18.3125 C-8.94023145 15.77885636 -8.00866237 13.42078968 -7 11 C-6.34 11 -5.68 11 -5 11 C-4.9175 10.29875 -4.835 9.5975 -4.75 8.875 C-3.82972275 5.34727053 -2.11873023 2.93888386 0 0 Z " fill="#7A7A7A" transform="translate(568,491)"/>
<path d="M0 0 C-0.66 0.66 -1.32 1.32 -2 2 C-2.99 2 -3.98 2 -5 2 C-5 2.66 -5 3.32 -5 4 C-6.98 4.33 -8.96 4.66 -11 5 C-11 5.66 -11 6.32 -11 7 C-12.32 7 -13.64 7 -15 7 C-15.33 7.99 -15.66 8.98 -16 10 C-17.32303717 10.3721042 -18.65737935 10.70630173 -20 11 C-20.33 11.66 -20.66 12.32 -21 13 C-22.32 12.67 -23.64 12.34 -25 12 C-19.25 7 -19.25 7 -17 7 C-17 6.34 -17 5.68 -17 5 C-15.02 4.67 -13.04 4.34 -11 4 C-11 3.34 -11 2.68 -11 2 C-9.73392393 1.46770674 -8.46189588 0.94955456 -7.1875 0.4375 C-6.47980469 0.14746094 -5.77210938 -0.14257812 -5.04296875 -0.44140625 C-3 -1 -3 -1 0 0 Z " fill="#7B7B7B" transform="translate(337,258)"/>
<path d="M0 0 C16.83 0 33.66 0 51 0 C51 0.33 51 0.66 51 1 C49.77482666 1.02505615 48.54965332 1.0501123 47.28735352 1.07592773 C42.70815965 1.17065126 38.12909473 1.27070896 33.55004883 1.37231445 C31.57449375 1.41541923 29.59890724 1.45710962 27.62329102 1.49731445 C24.77090009 1.55561465 21.91866379 1.61913145 19.06640625 1.68359375 C18.19415909 1.70030624 17.32191193 1.71701874 16.42323303 1.73423767 C10.89381774 1.86549985 5.48959615 2.31895076 0 3 C0 2.01 0 1.02 0 0 Z " fill="#525252" transform="translate(379,240)"/>
<path d="M0 0 C0.33 0 0.66 0 1 0 C1.21930495 5.48262369 1.00452182 9.81182588 -1 15 C-1.36106097 16.66088045 -1.70462173 18.32618981 -2 20 C-2.66 20 -3.32 20 -4 20 C-4.33 22.64 -4.66 25.28 -5 28 C-5.66 28 -6.32 28 -7 28 C-6.34 24.37 -5.68 20.74 -5 17 C-4.34 17 -3.68 17 -3 17 C-3.01160156 16.40832031 -3.02320313 15.81664062 -3.03515625 15.20703125 C-3.08322386 10.99768215 -3.06006883 7.1077667 -2 3 C-1.34 3 -0.68 3 0 3 C0 2.01 0 1.02 0 0 Z " fill="#676767" transform="translate(584,443)"/>
<path d="M0 0 C5.62720317 0.92876169 10.19081212 1.79387475 15 5 C16.0725 5.33 17.145 5.66 18.25 6 C19.1575 6.33 20.065 6.66 21 7 C21.33 7.99 21.66 8.98 22 10 C22.99 10.33 23.98 10.66 25 11 C22.50907189 12.24546405 21.58919267 11.7767578 19 11 C19 10.34 19 9.68 19 9 C18.236875 8.896875 17.47375 8.79375 16.6875 8.6875 C13.70876939 7.92549915 13.0631646 7.14912979 11 5 C7.40925414 3.25315066 3.94167592 2.55000129 0 2 C0 1.34 0 0.68 0 0 Z " fill="#808080" transform="translate(453,296)"/>
<path d="M0 0 C1.27310312 0.93441535 2.543388 1.87267111 3.8125 2.8125 C4.52019531 3.33457031 5.22789062 3.85664063 5.95703125 4.39453125 C9.6228796 7.27534133 9.6228796 7.27534133 11 9 C11 10.32 11 11.64 11 13 C11.99 13.33 12.98 13.66 14 14 C14 15.32 14 16.64 14 18 C14.66 18 15.32 18 16 18 C15.67 19.32 15.34 20.64 15 22 C11 16.25 11 16.25 11 14 C10.34 14 9.68 14 9 14 C8.608125 13.113125 8.21625 12.22625 7.8125 11.3125 C5.92923328 7.87066773 3.7917597 5.71829234 1 3 C0.67 2.01 0.34 1.02 0 0 Z " fill="#757575" transform="translate(546,305)"/>
<path d="M0 0 C0 0.99 0 1.98 0 3 C-0.66 3 -1.32 3 -2 3 C-2.04125 3.598125 -2.0825 4.19625 -2.125 4.8125 C-3.43708174 8.09270435 -5.89424767 8.54219788 -9 10 C-9.99 11.485 -9.99 11.485 -11 13 C-12.9453125 13.94921875 -12.9453125 13.94921875 -15.125 14.6875 C-16.21167969 15.06455078 -16.21167969 15.06455078 -17.3203125 15.44921875 C-17.87460937 15.63097656 -18.42890625 15.81273437 -19 16 C-18.67 15.01 -18.34 14.02 -18 13 C-16.35 12.67 -14.7 12.34 -13 12 C-13 11.34 -13 10.68 -13 10 C-7.52380952 5 -7.52380952 5 -5 5 C-4.67 4.01 -4.34 3.02 -4 2 C-1.9375 0.8125 -1.9375 0.8125 0 0 Z " fill="#7B7B7B" transform="translate(528,545)"/>
<path d="M0 0 C0 0.66 0 1.32 0 2 C-0.58007812 2.10957031 -1.16015625 2.21914062 -1.7578125 2.33203125 C-6.61917224 3.31874288 -10.59503123 4.63635822 -15 7 C-15.66 7 -16.32 7 -17 7 C-17 7.66 -17 8.32 -17 9 C-18.98 9 -20.96 9 -23 9 C-23 8.34 -23 7.68 -23 7 C-16.05175191 3.36044148 -7.96337927 0 0 0 Z " fill="#838383" transform="translate(360,248)"/>
<path d="M0 0 C2.39276303 2.39276303 3.12661725 4.48416441 4.375 7.625 C5.88629791 11.36064142 7.44415087 14.99202498 9.3125 18.5625 C11 22 11 22 11 25 C10.01 25 9.02 25 8 25 C7.90847656 23.98164063 7.81695312 22.96328125 7.72265625 21.9140625 C6.94751506 17.7157302 5.5983602 15.03318352 3.4375 11.375 C1.06271491 7.35172224 -0.48299232 4.72454308 0 0 Z " fill="#A5A5A5" transform="translate(287,449)"/>
<path d="M0 0 C0.33 0 0.66 0 1 0 C0.85691406 1.24652344 0.71382812 2.49304688 0.56640625 3.77734375 C-0.05450693 9.36556238 -0.56215987 14.96239672 -1.0625 20.5625 C-1.15337891 21.57119141 -1.24425781 22.57988281 -1.33789062 23.61914062 C-1.55942638 26.0793535 -1.78011346 28.53963927 -2 31 C-2.33 31 -2.66 31 -3 31 C-3.12873737 21.58786748 -2.79822348 12.37912587 -2 3 C-1.34 3 -0.68 3 0 3 C0 2.01 0 1.02 0 0 Z " fill="#3E3E3E" transform="translate(238,378)"/>
<path d="M0 0 C0.66 0.33 1.32 0.66 2 1 C1.24074219 1.73605469 0.48148437 2.47210938 -0.30078125 3.23046875 C-1.30495521 4.2158731 -2.30884654 5.20156552 -3.3125 6.1875 C-3.81201172 6.67025391 -4.31152344 7.15300781 -4.82617188 7.65039062 C-7.77247413 10.55766901 -10.0029278 13.38266167 -12 17 C-13.5625 18.8125 -13.5625 18.8125 -15 20 C-15.66 20 -16.32 20 -17 20 C-17 19.01 -17 18.02 -17 17 C-15.34808509 15.64843325 -13.67705908 14.320238 -12 13 C-10.18563736 11.03271842 -8.45295403 9.0074243 -6.71484375 6.97265625 C-4.58448934 4.52202077 -2.33022931 2.2596163 0 0 Z " fill="#727272" transform="translate(292,285)"/>
<path d="M0 0 C5.94 0.99 5.94 0.99 12 2 C12 2.66 12 3.32 12 4 C13.051875 4.1546875 13.051875 4.1546875 14.125 4.3125 C17.39137647 5.09359003 20.0471852 6.42058743 23 8 C20 9 20 9 18.125 8.328125 C17.42375 7.97234375 16.7225 7.6165625 16 7.25 C10.83090216 4.79744617 5.54069178 3.36704919 0 2 C0 1.34 0 0.68 0 0 Z " fill="#575757" transform="translate(461,247)"/>
<path d="M0 0 C0.66 0 1.32 0 2 0 C2.84026396 1.76755526 3.67198722 3.53917263 4.5 5.3125 C4.9640625 6.29863281 5.428125 7.28476562 5.90625 8.30078125 C7 11 7 11 7 14 C7.99 14.33 8.98 14.66 10 15 C10 15.66 10 16.32 10 17 C10.66 17 11.32 17 12 17 C12 17.99 12 18.98 12 20 C11.01 20 10.02 20 9 20 C9 18.68 9 17.36 9 16 C8.01 15.67 7.02 15.34 6 15 C4.90234375 13.14453125 4.90234375 13.14453125 3.9375 10.8125 C3.60105469 10.00554687 3.26460937 9.19859375 2.91796875 8.3671875 C1.84728306 5.60618526 0.87092021 2.83049069 0 0 Z " fill="#5C5C5C" transform="translate(252,491)"/>
<path d="M0 0 C0.66 0 1.32 0 2 0 C2.125 6.75 2.125 6.75 1 9 C0.34 9 -0.32 9 -1 9 C-1.33 10.65 -1.66 12.3 -2 14 C-2.66 14 -3.32 14 -4 14 C-4.125 8.25 -4.125 8.25 -3 6 C-2.01 6 -1.02 6 0 6 C0 4.02 0 2.04 0 0 Z " fill="#414141" transform="translate(530,454)"/>
<path d="M0 0 C0.66 0 1.32 0 2 0 C2 2.97 2 5.94 2 9 C2.66 9 3.32 9 4 9 C5.60725635 12.21451269 5.05748185 15.43612536 5 19 C4.34 19 3.68 19 3 19 C3 16.69 3 14.38 3 12 C2.34 12 1.68 12 1 12 C0.67 8.04 0.34 4.08 0 0 Z " fill="#ACACAC" transform="translate(532,375)"/>
<path d="M0 0 C0.66 0 1.32 0 2 0 C2 2.97 2 5.94 2 9 C1.34 9 0.68 9 0 9 C-0.33 10.65 -0.66 12.3 -1 14 C-1.66 14 -2.32 14 -3 14 C-3.20086443 10.28400809 -3.1519437 9.22791555 -1 6 C-0.60986284 4.0103005 -0.26797351 2.00980131 0 0 Z " fill="#636363" transform="translate(575,471)"/>
<path d="M0 0 C0.33 0.66 0.66 1.32 1 2 C-1.5051971 5.48938167 -2.80462913 7.13199223 -7 8 C-7.33 8.99 -7.66 9.98 -8 11 C-8.66 10.67 -9.32 10.34 -10 10 C-7.19372222 5.25091453 -4.74908547 2.80627778 0 0 Z " fill="#595959" transform="translate(322,325)"/>
<path d="M0 0 C2.4375 0.375 2.4375 0.375 5 1 C5.33 1.66 5.66 2.32 6 3 C7.65071396 4.02611949 9.31970006 5.02308143 11 6 C13.3125 7.5625 13.3125 7.5625 15 9 C15 9.66 15 10.32 15 11 C13.125 10.6875 13.125 10.6875 11 10 C10.34 9.01 9.68 8.02 9 7 C7.34183216 6.31246699 5.67540664 5.64438717 4 5 C3.67 4.34 3.34 3.68 3 3 C2.01 2.67 1.02 2.34 0 2 C0 1.34 0 0.68 0 0 Z " fill="#8E8E8E" transform="translate(509,271)"/>
<path d="M0 0 C1.24546405 2.49092811 0.7767578 3.41080733 0 6 C-0.99 6 -1.98 6 -3 6 C-3.2475 6.70125 -3.495 7.4025 -3.75 8.125 C-5.16088026 11.37002459 -6.97895398 14.10316737 -9 17 C-9.33 16.01 -9.66 15.02 -10 14 C-8.63671875 11.30078125 -8.63671875 11.30078125 -6.6875 8.3125 C-6.05199219 7.31863281 -5.41648437 6.32476562 -4.76171875 5.30078125 C-4.18035156 4.54152344 -3.59898437 3.78226562 -3 3 C-2.34 3 -1.68 3 -1 3 C-0.67 2.01 -0.34 1.02 0 0 Z " fill="#7C7C7C" transform="translate(266,316)"/>
<path d="M0 0 C1.79244141 0.01740234 1.79244141 0.01740234 3.62109375 0.03515625 C5.41740234 0.04869141 5.41740234 0.04869141 7.25 0.0625 C8.17683594 0.07410156 9.10367187 0.08570313 10.05859375 0.09765625 C10.05859375 0.42765625 10.05859375 0.75765625 10.05859375 1.09765625 C9.10146484 1.18853516 9.10146484 1.18853516 8.125 1.28125 C7.29871094 1.36503906 6.47242188 1.44882812 5.62109375 1.53515625 C4.38552734 1.65697266 4.38552734 1.65697266 3.125 1.78125 C1.0719735 1.8869644 1.0719735 1.8869644 0.05859375 3.09765625 C-2.46736884 3.33419148 -4.97247832 3.51939317 -7.50390625 3.66015625 C-8.21482422 3.70333984 -8.92574219 3.74652344 -9.65820312 3.79101562 C-11.41902537 3.89737402 -13.18018945 3.99804471 -14.94140625 4.09765625 C-14.61140625 3.43765625 -14.28140625 2.77765625 -13.94140625 2.09765625 C-11.69140625 1.71875 -11.69140625 1.71875 -8.94140625 1.53515625 C-5.49398692 1.29520803 -3.23758468 0.10748953 0 0 Z " fill="#393939" transform="translate(391.94140625,289.90234375)"/>
<path d="M0 0 C3.56354796 5.34532193 5.48754536 10.49939519 5 17 C4.67 17 4.34 17 4 17 C3.67 14.69 3.34 12.38 3 10 C2.01 9.67 1.02 9.34 0 9 C0 6.03 0 3.06 0 0 Z " fill="#A1A1A1" transform="translate(577,361)"/>
<path d="M0 0 C0.33 0.66 0.66 1.32 1 2 C-0.32 2 -1.64 2 -3 2 C-3.33 2.99 -3.66 3.98 -4 5 C-5.32303717 5.3721042 -6.65737935 5.70630173 -8 6 C-8.33 6.66 -8.66 7.32 -9 8 C-10.32 7.67 -11.64 7.34 -13 7 C-8.72847508 3.04102568 -5.68748885 1.25124755 0 0 Z " fill="#959595" transform="translate(325,263)"/>
<path d="M0 0 C1.62276158 2.43414237 2.61744792 4.31319446 3.625 7 C3.88539063 7.680625 4.14578125 8.36125 4.4140625 9.0625 C5 11 5 11 5 14 C4.01 14 3.02 14 2 14 C2 11.36 2 8.72 2 6 C1.34 6 0.68 6 0 6 C0 4.02 0 2.04 0 0 Z " fill="#4C4C4C" transform="translate(527,364)"/>
<path d="M0 0 C1.32 0 2.64 0 4 0 C4 0.99 4 1.98 4 3 C4.99 3 5.98 3 7 3 C7.66 4.98 8.32 6.96 9 9 C8.01 8.67 7.02 8.34 6 8 C6 7.34 6 6.68 6 6 C5.01 5.67 4.02 5.34 3 5 C3 4.34 3 3.68 3 3 C2.01 2.67 1.02 2.34 0 2 C0 1.34 0 0.68 0 0 Z " fill="#636363" transform="translate(528,285)"/>
<path d="M0 0 C3.96 0 7.92 0 12 0 C8.96474514 2.02350324 7.80573798 2.32124018 4.3125 2.625 C3.50425781 2.69976562 2.69601562 2.77453125 1.86328125 2.8515625 C1.24839844 2.90054688 0.63351562 2.94953125 0 3 C0 2.01 0 1.02 0 0 Z " fill="#2F2F2F" transform="translate(379,240)"/>
<path d="M0 0 C0.66 0.33 1.32 0.66 2 1 C1.51789063 1.32613281 1.03578125 1.65226562 0.5390625 1.98828125 C-0.09257812 2.42527344 -0.72421875 2.86226563 -1.375 3.3125 C-2.31472656 3.95638672 -2.31472656 3.95638672 -3.2734375 4.61328125 C-5.26378845 6.06920339 -5.26378845 6.06920339 -7 9 C-7.66 9 -8.32 9 -9 9 C-9 8.01 -9 7.02 -9 6 C-7.36368108 4.95107762 -5.69514137 3.95093297 -4 3 C-3.67 2.34 -3.34 1.68 -3 1 C-2.01 0.67 -1.02 0.34 0 0 Z " fill="#666666" transform="translate(307,273)"/>
<path d="M0 0 C0 0.66 0 1.32 0 2 C-1.65 2.33 -3.3 2.66 -5 3 C-5 3.66 -5 4.32 -5 5 C-6.98 5.33 -8.96 5.66 -11 6 C-3.6 0 -3.6 0 0 0 Z " fill="#777777" transform="translate(354,302)"/>
<path d="M0 0 C-0.66 0.66 -1.32 1.32 -2 2 C-2.99 2 -3.98 2 -5 2 C-5 2.66 -5 3.32 -5 4 C-6.98 4.33 -8.96 4.66 -11 5 C-11 4.34 -11 3.68 -11 3 C-7.14243493 0.84694043 -4.44870215 -0.39253254 0 0 Z " fill="#8F8F8F" transform="translate(365,297)"/>
<path d="M0 0 C0 0.99 0 1.98 0 3 C-0.66 3 -1.32 3 -2 3 C-2.33 4.32 -2.66 5.64 -3 7 C-4.32 7.33 -5.64 7.66 -7 8 C-4.53846154 2.33846154 -4.53846154 2.33846154 -1.8125 0.625 C-1.214375 0.41875 -0.61625 0.2125 0 0 Z " fill="#555555" transform="translate(528,545)"/>
<path d="M0 0 C0.33 1.32 0.66 2.64 1 4 C0.34 4 -0.32 4 -1 4 C-1 4.66 -1 5.32 -1 6 C-3 7.625 -3 7.625 -5 9 C-5.66 8.67 -6.32 8.34 -7 8 C-6.0409375 7.1028125 -6.0409375 7.1028125 -5.0625 6.1875 C-2.79689611 4.09189663 -2.79689611 4.09189663 -2 1 C-1.34 0.67 -0.68 0.34 0 0 Z " fill="#646464" transform="translate(545,527)"/>
<path d="M0 0 C0.66 0.33 1.32 0.66 2 1 C-0.85714286 8.57142857 -0.85714286 8.57142857 -5 11 C-4.34 9.02 -3.68 7.04 -3 5 C-2.34 5 -1.68 5 -1 5 C-0.67 3.35 -0.34 1.7 0 0 Z " fill="#949494" transform="translate(555,511)"/>
<path d="M0 0 C2.5 1.375 2.5 1.375 5 3 C5 3.66 5 4.32 5 5 C5.99 5.33 6.98 5.66 8 6 C7.67 6.66 7.34 7.32 7 8 C4.5 6.625 4.5 6.625 2 5 C2 4.34 2 3.68 2 3 C1.34 3 0.68 3 0 3 C0 2.01 0 1.02 0 0 Z " fill="#7F7F7F" transform="translate(287,539)"/>
<path d="M0 0 C4.41889613 1.35021826 6.34345343 3.26115668 9 7 C5.21616321 6.07506212 3.43306306 5.60628829 1.125 2.375 C0.75375 1.59125 0.3825 0.8075 0 0 Z " fill="#848484" transform="translate(300,551)"/>
<path d="M0 0 C2 1.375 2 1.375 4 3 C4 3.66 4 4.32 4 5 C4.99 5.33 5.98 5.66 7 6 C7 6.66 7 7.32 7 8 C5.1875 7.8125 5.1875 7.8125 3 7 C0 2.82142857 0 2.82142857 0 0 Z " fill="#686868" transform="translate(274,525)"/>
<path d="M0 0 C0.99 0.33 1.98 0.66 3 1 C3 1.99 3 2.98 3 4 C3.99 4.33 4.98 4.66 6 5 C6 5.99 6 6.98 6 8 C2.24623848 6.74874616 1.75926711 5.4347596 0 2 C0 1.34 0 0.68 0 0 Z " fill="#B3B3B3" transform="translate(269,517)"/>
<path d="M0 0 C0.66 0 1.32 0 2 0 C2.125 6.75 2.125 6.75 1 9 C0.34 9 -0.32 9 -1 9 C-0.67 6.03 -0.34 3.06 0 0 Z " fill="#8C8C8C" transform="translate(530,454)"/>
<path d="M0 0 C0.33 1.32 0.66 2.64 1 4 C0.34 4 -0.32 4 -1 4 C-1.33 5.65 -1.66 7.3 -2 9 C-2.66 9 -3.32 9 -4 9 C-3.46930939 5.17902761 -2.50298434 2.93828597 0 0 Z " fill="#B8B8B8" transform="translate(254,338)"/>
<path d="M0 0 C1.485 0.99 1.485 0.99 3 2 C3 2.66 3 3.32 3 4 C3.99 4.33 4.98 4.66 6 5 C6 5.99 6 6.98 6 8 C4.125 7.375 4.125 7.375 2 6 C0.75 2.875 0.75 2.875 0 0 Z " fill="#5C5C5C" transform="translate(503,328)"/>
<path d="M0 0 C0.99 0.495 0.99 0.495 2 1 C2 1.66 2 2.32 2 3 C2.66 3 3.32 3 4 3 C4.33 4.98 4.66 6.96 5 9 C4.34 8.67 3.68 8.34 3 8 C3 7.34 3 6.68 3 6 C2.34 6 1.68 6 1 6 C0.67 4.02 0.34 2.04 0 0 Z " fill="#878787" transform="translate(562,327)"/>
<path d="M0 0 C0.99 0.33 1.98 0.66 3 1 C3 2.32 3 3.64 3 5 C3.66 5 4.32 5 5 5 C4.67 6.32 4.34 7.64 4 9 C0 3.375 0 3.375 0 0 Z " fill="#5D5D5D" transform="translate(557,318)"/>
<path d="M0 0 C3.63 0 7.26 0 11 0 C11.33 0.99 11.66 1.98 12 3 C6.06 2.01 6.06 2.01 0 1 C0 0.67 0 0.34 0 0 Z " fill="#D8D8D8" transform="translate(427,288)"/>
<path d="M0 0 C4.455 0.99 4.455 0.99 9 2 C9 2.66 9 3.32 9 4 C4.545 3.01 4.545 3.01 0 2 C0 1.34 0 0.68 0 0 Z " fill="#727272" transform="translate(461,247)"/>
<path d="M0 0 C0.66 0 1.32 0 2 0 C1.34 3.63 0.68 7.26 0 11 C-0.33 11 -0.66 11 -1 11 C-1.0270043 9.54176788 -1.04639787 8.08339325 -1.0625 6.625 C-1.07410156 5.81289063 -1.08570313 5.00078125 -1.09765625 4.1640625 C-1 2 -1 2 0 0 Z " fill="#3F3F3F" transform="translate(242,361)"/>
<path d="M0 0 C0.26218749 3.14624993 0.24754367 4.61837017 -1.5 7.3125 C-2.2425 8.1478125 -2.2425 8.1478125 -3 9 C-3 6.36 -3 3.72 -3 1 C-1 0 -1 0 0 0 Z " fill="#414141" transform="translate(250,344)"/>
</svg>
